Coordinates
version=1
nRows=29
nColumns=24
inDegrees=yes

Units are S.I. units (second, meters, Newtons, ...)
Angles are in degrees.

endheader
time	pelvis_tilt	pelvis_list	pelvis_rotation	pelvis_tx	pelvis_ty	pelvis_tz	hip_flexion_r	hip_adduction_r	hip_rotation_r	knee_angle_r	ankle_angle_r	subtalar_angle_r	mtp_angle_r	hip_flexion_l	hip_adduction_l	hip_rotation_l	knee_angle_l	ankle_angle_l	subtalar_angle_l	mtp_angle_l	lumbar_extension	lumbar_bending	lumbar_rotation
      3.99500000	     17.89826676	     -2.49756262	     -3.08625484	     -0.19289136	      0.96132806	     -0.03284485	      0.79205313	     -3.52113057	     -6.50502003	    -16.52322624	     19.41554804	      7.95861986	     29.68570783	    -29.59048227	      0.97067964	     -6.82706827	      3.87340612	     12.12894560	     14.56652286	      7.12471617	    -30.13166566	     -0.37874974	      0.08680703
      4.00000000	     17.96811394	     -2.44387164	     -2.94431852	     -0.18853742	      0.96086454	     -0.03244468	      0.47403344	     -3.42683997	     -6.32823814	    -14.34639606	     18.85408411	      8.02169562	     31.37006233	    -29.89530719	      0.93759234	     -6.95628709	      3.75365249	     12.47162953	     15.05048504	      6.99253615	    -30.19835710	     -0.38151269	     -0.04693399
      4.00500000	     18.08909975	     -2.33740352	     -2.78862325	     -0.18415075	      0.96041896	     -0.03219072	      0.11193910	     -3.42312411	     -6.25935063	    -12.27930856	     18.46487763	      8.47150330	     31.48877285	    -30.30498307	      0.96364389	     -6.86190437	      3.75428138	     12.62407586	     15.10778998	      6.98560033	    -30.31511080	     -0.41684111	     -0.20153670
      4.01000000	     18.19585787	     -2.22022980	     -2.64399817	     -0.17972925	      0.95993125	     -0.03185727	     -0.24821405	     -3.42204865	     -6.14543305	    -10.24995017	     17.99952612	      8.81920211	     31.68465504	    -30.67668332	      0.99609691	     -6.87661785	      3.69859460	     12.83001000	     15.38883323	      6.98952539	    -30.40916159	     -0.46850575	     -0.35286794
      4.01500000	     18.28881393	     -2.08321158	     -2.50799067	     -0.17531246	      0.95938928	     -0.03148166	     -0.58285405	     -3.44232796	     -6.02323100	     -8.31477083	     17.50572212	      9.14298369	     31.93887885	    -31.02688998	      1.04578535	     -6.89742241	      3.63094830	     13.04644558	     15.67179624	      6.99095503	    -30.48867150	     -0.54285959	     -0.49578028
      4.02000000	     18.33249748	     -1.91303126	     -2.40126216	     -0.17091405	      0.95876387	     -0.03100085	     -0.86073243	     -3.48767129	     -5.80883683	     -6.42849984	     16.74866247	      9.10961413	     34.59310592	    -31.29197234	      1.12851956	     -7.00170240	      3.49652768	     13.32832498	     16.15859878	      6.72372912	    -30.51325276	     -0.66566283	     -0.62528483
      4.02500000	     18.43344104	     -1.73974953	     -2.26936430	     -0.16649997	      0.95817518	     -0.03067206	     -1.14969404	     -3.56648680	     -5.77392478	     -4.78333717	     16.30339724	      9.55577515	     34.66724322	    -31.66425416	      1.21643437	     -6.91931604	      3.46421240	     13.48483303	     16.22965382	      6.72857633	    -30.60056607	     -0.76211808	     -0.76117274
      4.03000000	     18.51682034	     -1.55037692	     -2.13553409	     -0.16207125	      0.95755507	     -0.03028947	     -1.40857224	     -3.65622803	     -5.74580531	     -3.25365173	     15.84459588	      9.89104453	     34.79894067	    -31.99739473	      1.30769707	     -6.88329133	      3.38788456	     13.67086353	     16.46060748	      6.75182578	    -30.66608107	     -0.87577350	     -0.91414125
      4.03500000	     18.58734284	     -1.35348657	     -2.00630340	     -0.15763278	      0.95691922	     -0.02988039	     -1.62566871	     -3.75332449	     -5.74541916	     -1.87961814	     15.40036557	     10.18680771	     34.97655360	    -32.31259270	      1.40285112	     -6.84758901	      3.30097264	     13.85505697	     16.69319611	      6.78300951	    -30.71449988	     -0.99584661	     -1.06236428
      4.04000000	     18.65006704	     -1.16292449	     -1.91048659	     -0.15319904	      0.95626507	     -0.02937948	     -1.80061238	     -3.84023608	     -5.72279600	     -0.65097472	     14.85992092	     10.31338824	     36.78780472	    -32.59797182	      1.50113770	     -6.92746166	      3.15944239	     14.09520529	     17.10736795	      6.89986890	    -30.75648535	     -1.12398755	     -1.15920880
      4.04500000	     18.72722398	     -0.95016772	     -1.76956827	     -0.14875985	      0.95565638	     -0.02900800	     -1.96895676	     -3.95740850	     -5.81008527	      0.39375042	     14.49755530	     10.57435983	     36.84045979	    -32.92704426	      1.60092282	     -6.77651506	      3.09204291	     14.19088944	     17.14060897	      6.92391019	    -30.81330530	     -1.24120706	     -1.31057867
      4.05000000	     18.81684234	     -0.75197517	     -1.64678347	     -0.14429351	      0.95506327	     -0.02857398	     -2.12000134	     -4.05662754	     -5.91592379	      1.26826546	     14.19775743	     10.83175449	     36.92271166	    -33.25782367	      1.68951197	     -6.71162573	      2.98633438	     14.33478577	     17.31777807	      6.97502664	    -30.88126187	     -1.35136254	     -1.43550358
      4.05500000	     18.92911754	     -0.57871174	     -1.52635063	     -0.13975926	      0.95450665	     -0.02810793	     -2.27823896	     -4.12534121	     -6.05254433	      1.98736413	     13.95672038	     11.07988776	     37.05131158	    -33.62920359	      1.75307484	     -6.68073710	      2.90162729	     14.47888902	     17.53733009	      7.05202506	    -30.96618830	     -1.43516351	     -1.55809309
      4.06000000	     19.03123926	     -0.40357703	     -1.41098788	     -0.13522433	      0.95397248	     -0.02763631	     -2.39636452	     -4.19512683	     -6.20570010	      2.53912935	     13.76684474	     11.30095409	     37.18526204	    -33.97229503	      1.81528842	     -6.64492882	      2.77966902	     14.60968952	     17.74809079	      7.14261817	    -31.04152022	     -1.51715838	     -1.65793577
      4.06500000	     19.15361452	     -0.24134348	     -1.30277625	     -0.13065145	      0.95347381	     -0.02714302	     -2.51681578	     -4.25026239	     -6.36723595	      2.93797109	     13.63593992	     11.51044364	     37.31823127	    -34.34018897	      1.86568597	     -6.62243534	      2.65475994	     14.72907216	     17.96502136	      7.25007967	    -31.13456435	     -1.58488881	     -1.74970107
      4.07000000	     19.27836233	     -0.09371804	     -1.20117233	     -0.12602561	      0.95300228	     -0.02664338	     -2.62282988	     -4.29069113	     -6.53409661	      3.18929196	     13.56247555	     11.72674994	     37.45363941	    -34.71416812	      1.90213796	     -6.60635053	      2.52788590	     14.84193978	     18.18779604	      7.38135271	    -31.22458376	     -1.63370251	     -1.83129479
      4.07500000	     19.41644963	      0.03315578	     -1.12135087	     -0.12134546	      0.95256122	     -0.02607238	     -2.71853483	     -4.30817702	     -6.71156787	      3.28398556	     13.55520511	     12.04397198	     37.71568623	    -35.10108051	      1.92601593	     -6.65029371	      2.38610832	     14.94143268	     18.42127214	      7.69586299	    -31.31991217	     -1.67453017	     -1.87186281
      4.08000000	     19.54812484	      0.17966716	     -1.01122051	     -0.11663184	      0.95212581	     -0.02557448	     -2.82567550	     -4.34542204	     -6.84083573	      3.30415102	     13.56583028	     12.11650646	     37.77461744	    -35.48071037	      1.94667572	     -6.59318328	      2.24603974	     15.03121822	     18.61373261	      7.82262701	    -31.40734369	     -1.70735021	     -1.97871554
      4.08500000	     19.71965603	      0.27764479	     -0.91544754	     -0.11186856	      0.95177272	     -0.02502046	     -2.95206258	     -4.33232018	     -7.00185509	      3.16937921	     13.61417457	     12.37524420	     37.85305835	    -35.89875214	      1.92237052	     -6.61756437	      2.08185927	     15.10093576	     18.91018717	      8.03421670	    -31.53197978	     -1.69758390	     -2.01155814
      4.09000000	     19.88107703	      0.38345118	     -0.82155174	     -0.10707262	      0.95141877	     -0.02446297	     -3.06381354	     -4.32927593	     -7.14134539	      2.93560989	     13.70429131	     12.63241679	     37.90965464	    -36.29192102	      1.90173093	     -6.62903641	      1.88480115	     15.16606806	     19.16788331	      8.30904380	    -31.64180886	     -1.69133809	     -2.04681710
      4.09500000	     20.04354171	      0.48416692	     -0.73490703	     -0.10222697	      0.95107345	     -0.02388223	     -3.17851911	     -4.32232061	     -7.23195006	      2.61748054	     13.79990670	     12.86804567	     37.93262192	    -36.69307853	      1.87527609	     -6.63958036	      1.69873600	     15.22786226	     19.43944480	      8.60110591	    -31.74768477	     -1.67930368	     -2.09345895
      4.10000000	     20.20164999	      0.57618188	     -0.65301826	     -0.09733852	      0.95073933	     -0.02329337	     -3.28994007	     -4.30917588	     -7.28893744	      2.22353255	     13.89452200	     13.11074721	     37.93073045	    -37.07948621	      1.83817367	     -6.65616990	      1.48435917	     15.28267032	     19.71258673	      8.91935035	    -31.84314362	     -1.65359150	     -2.12660872
      4.10500000	     20.31273266	      0.69474960	     -0.58785431	     -0.09251348	      0.95037120	     -0.02269951	     -3.34771999	     -4.32716834	     -7.21322545	      1.77620098	     13.88957309	     13.12807553	     37.93035043	    -37.39062454	      1.83123967	     -6.58351310	      1.23063011	     15.32929233	     19.80894149	      8.98778716	    -31.89635433	     -1.65557002	     -2.12875837
      4.11000000	     20.51587986	      0.76342370	     -0.49236089	     -0.08749571	      0.95013122	     -0.02213880	     -3.52246458	     -4.29835556	     -7.32304843	      1.25413756	     14.06218002	     13.72262277	     37.30180250	    -37.83382033	      1.76085284	     -6.57601597	      1.04275447	     15.02824626	     19.91849435	     12.74506590	    -32.02566090	     -1.58795833	     -2.15255344
      4.11500000	     20.64341060	      0.84007630	     -0.40284556	     -0.08251448	      0.94981599	     -0.02148620	     -3.63725163	     -4.26693457	     -7.23048997	      0.75076981	     14.02154432	     13.82477416	     37.32757368	    -38.14291224	      1.68180074	     -6.61603869	      0.72808061	     15.12798364	     20.32417173	     12.84822942	    -32.08004273	     -1.53550594	     -2.19614585
      4.12000000	     20.78315400	      0.90133068	     -0.32623722	     -0.07749220	      0.94955227	     -0.02082796	     -3.77287231	     -4.22471857	     -7.13617195	      0.22433918	     13.92317557	     14.03373384	     37.36452105	    -38.46381104	      1.59513553	     -6.65410727	      0.40594320	     15.15144019	     20.65943082	     13.00631617	    -32.14110374	     -1.46688057	     -2.17895443
      4.12500000	     20.92090837	      0.97073712	     -0.25604507	     -0.07247671	      0.94929646	     -0.02015236	     -3.91832311	     -4.19494242	     -6.97171256	     -0.30290215	     13.77442771	     14.20429123	     37.39974478	    -38.77118697	      1.51575163	     -6.67962749	      0.06510098	     15.19385425	     20.97076917	     13.18226580	    -32.20298282	     -1.40643704	     -2.19917045
      4.13000000	     21.00681732	      1.05336920	     -0.18147241	     -0.06748621	      0.94904724	     -0.01951737	     -4.00624451	     -4.18325989	     -6.78597662	     -0.84917833	     13.51668457	     14.26787366	     37.40358058	    -39.00947064	      1.44545741	     -6.59402642	     -0.28795042	     15.16208211	     21.09731013	     13.23710140	    -32.21255867	     -1.34724757	     -2.19056316
      4.13500000	     21.13852850	      1.05909205	     -0.10897541	     -0.06237732	      0.94886718	     -0.01876360	     -4.18261577	     -4.08424916	     -6.58407346	     -1.34341015	     13.19791090	     14.42962755	     37.48577011	    -39.27620761	      1.29114784	     -6.75456985	     -0.71006678	     15.21681643	     21.64738958	     13.56349340	    -32.25852063	     -1.22051995	     -2.17501607
